PathFileType	4	(X/Y/Z)	D:\TRACE\v60_Jaco2_6-2-23\BothDRS_Motion3_10-platform.trc
DataRate	CameraRate	NumFrames	NumMarkers	Units	OrigDataRate	OrigDataStartFrame	OrigNumFrames
100.00	100.00	      29	5	mm	100.00	4376	      7000
Frame#	Time	Left_Front			Right_Front			Left_Aft			Right_Aft			Post			
		X1	Y1	Z1	X2	Y2	Z2	X3	Y3	Z3	X4	Y4	Z4	X5	Y5	Z5	

4376	43.750	-756.13354	-35.79494	-659.95911	814.60077	-36.75455	-637.42505	-687.02808	41.80283	474.02945	727.45758	44.98714	576.85571	39.77913	1237.50623	-1059.98108	
4377	43.760	-756.14307	-35.33094	-659.66803	814.51617	-36.19229	-637.43024	-687.01917	41.51339	474.09732	727.19659	44.19159	577.01984	39.51944	1238.52173	-1059.14722	
4378	43.770	-756.37958	-34.48917	-659.55096	814.43921	-35.58775	-637.34619	-687.03308	41.18039	474.31897	727.23944	43.81770	577.17389	39.77640	1239.52551	-1057.74329	
4379	43.780	-756.24670	-34.02111	-659.40143	814.62280	-35.00621	-637.18042	-687.05981	40.86735	474.58289	727.35571	43.40342	577.30450	40.01507	1240.19312	-1056.72302	
4380	43.790	-756.20691	-33.55474	-659.65637	814.64252	-34.45520	-637.05707	-686.79626	40.37008	474.88089	727.40375	42.98655	577.61761	39.60490	1241.57544	-1055.42822	
4381	43.800	-756.30225	-32.70304	-659.34790	814.58398	-33.73404	-636.97998	-686.83691	39.93502	475.07364	727.44257	42.57653	577.74622	39.66631	1242.39307	-1054.36340	
4382	43.810	-756.30389	-31.89874	-659.21997	814.54895	-32.94699	-636.88959	-687.08282	39.77954	474.97980	727.36890	41.91029	577.95032	39.83250	1243.38831	-1052.86523	
4383	43.820	-756.26025	-31.23256	-659.14130	814.54962	-32.38837	-636.77106	-687.19531	39.36199	475.13455	727.09253	41.29332	578.14685	39.56220	1244.62256	-1051.70459	
4384	43.830	-756.22064	-30.64176	-659.16949	814.55292	-31.71293	-636.60522	-687.25085	38.85963	475.45584	727.07581	40.71738	578.46777	39.77982	1245.65015	-1050.17102	
4385	43.840	-756.33698	-29.75307	-658.98474	814.50354	-30.89493	-636.46625	-687.35852	38.35428	475.52823	727.39191	40.36867	578.51691	39.54889	1247.02734	-1048.74316	
4386	43.850	-756.52679	-29.21086	-658.76074	814.22424	-30.06530	-636.34479	-687.33087	37.82329	475.73941	727.06757	39.51543	578.84631	39.40141	1248.11169	-1047.30603	
4387	43.860	-756.93414	-28.14170	-658.61609	814.02026	-29.28061	-636.30518	-687.58783	37.25499	476.02844	726.82501	38.90539	579.01459	39.18800	1249.47217	-1045.60669	
4388	43.870	-757.25446	-27.04179	-658.45160	813.87482	-28.46954	-636.08911	-687.73059	36.72711	476.14886	726.78174	38.31721	579.25464	38.89041	1250.86731	-1044.04956	
4389	43.880	-757.27887	-26.45342	-658.12164	813.70178	-27.48007	-635.79938	-687.67157	35.54931	476.61356	726.43549	37.56737	579.54498	38.70000	1252.09082	-1042.35730	
4390	43.890	-757.44470	-25.52402	-657.67041	813.35071	-26.62800	-635.79034	-687.81689	35.12971	476.77203	726.22791	36.76180	579.78772	38.65112	1253.60559	-1040.48999	
4391	43.900	-757.44641	-24.53866	-657.64246	812.92511	-25.62062	-635.25055	-688.03156	34.50036	477.24179	726.11517	36.06957	579.92639	38.43283	1255.17529	-1038.65198	
4392	43.910	-757.50684	-23.79119	-657.56787	812.75873	-24.82796	-635.11450	-688.39087	34.09921	477.43311	725.99670	35.59444	580.29407	38.15898	1256.32300	-1036.70337	
4393	43.920	-757.69556	-22.92652	-657.31329	812.57764	-23.87557	-634.72125	-688.52417	33.59575	477.55939	725.67731	34.72876	580.31958	38.04599	1257.78589	-1034.68591	
4394	43.930	-757.94299	-22.15250	-657.51971	812.37793	-23.18571	-634.72296	-688.86182	32.51662	477.89862	725.18042	33.72289	580.38824	37.66778	1259.01770	-1032.61206	
4395	43.940	-758.24573	-21.15214	-657.35608	812.08136	-22.05390	-634.70947	-689.31946	32.47232	477.92114	725.12439	33.31311	580.76123	37.12872	1260.53931	-1030.03906	
4396	43.950	-758.74591	-19.74716	-657.06158	811.90594	-21.25918	-634.41931	-689.50464	32.12453	478.05856	725.15570	32.60245	581.10242	36.82635	1261.69568	-1027.92480	
4397	43.960	-759.43182	-19.04923	-656.79041	811.70612	-20.34670	-634.14758	-689.59637	31.30795	478.32813	724.68872	31.66865	581.28326	36.98480	1263.50562	-1025.83350	
4398	43.970	-759.29181	-18.27374	-656.50952	811.49207	-19.52872	-634.07513	-689.79498	30.77871	478.67038	724.62695	30.95518	581.66125	36.24496	1264.91833	-1023.57007	
4399	43.980	-759.41357	-17.32500	-656.45679	811.11426	-18.55775	-633.91168	-690.01410	30.19813	478.79861	724.25854	30.52409	581.79767	36.04136	1265.98633	-1021.26947	
4400	43.990	-759.83777	-16.70817	-656.60352	810.94067	-17.64908	-633.67975	-690.46588	29.44246	478.97104	723.80707	29.59389	582.13989	35.65534	1267.86597	-1019.72650	
4401	44.000	-759.89581	-15.51760	-656.26489	810.52283	-16.63600	-633.35126	-690.75439	28.70547	479.53949	723.62769	28.82681	582.39911	35.65117	1269.10864	-1017.65881	
4402	44.010	-759.84625	-14.28142	-655.48962	810.24158	-15.66391	-633.27130	-690.92926	27.87565	479.74963	723.38824	28.24598	582.60724	35.17297	1270.96924	-1016.06396	
4403	44.020	-760.45038	-13.50203	-655.42871	809.96368	-14.55698	-632.98413	-691.29065	27.11804	480.10431	722.78088	27.28803	582.92767	35.20462	1272.39368	-1014.01996	
4404	44.030	-761.08466	-12.54796	-655.45288	809.64178	-13.58843	-632.79865	-691.38428	26.53401	480.32693	722.77979	26.31323	583.23468	34.72459	1273.89270	-1012.29254	
